<?xml version="1.0" standalone="no"?>
<!DOCTYPE svg PUBLIC "-//W3C//DTD SVG 20010904//EN"
 "http://www.w3.org/TR/2001/REC-SVG-20010904/DTD/svg10.dtd">
<svg version="1.0" xmlns="http://www.w3.org/2000/svg"
 width="512.000000pt" height="512.000000pt" viewBox="0 0 512.000000 512.000000"
 preserveAspectRatio="xMidYMid meet">
<metadata>
Created by potrace 1.14, written by Peter Selinger 2001-2017
</metadata>
<g transform="translate(0.000000,512.000000) scale(0.100000,-0.100000)"
fill="#000000" stroke="none">
<path d="M2379 4796 c-2 -2 -31 -6 -64 -9 -90 -9 -143 -17 -215 -33 -36 -8
-78 -17 -93 -20 -16 -3 -46 -12 -68 -19 -21 -8 -39 -12 -39 -9 0 2 -13 -2 -29
-10 -15 -8 -39 -17 -52 -20 -13 -2 -45 -13 -72 -25 -26 -11 -51 -21 -55 -21
-17 -1 -282 -134 -282 -142 0 -4 -5 -8 -12 -8 -12 0 -203 -125 -228 -150 -9
-9 -33 -29 -55 -45 -42 -32 -43 -33 -131 -116 -125 -117 -253 -272 -348 -421
-52 -83 -136 -239 -136 -255 0 -7 -4 -13 -10 -13 -5 0 -10 -7 -10 -15 0 -8 -4
-23 -10 -33 -23 -41 -101 -261 -116 -327 -61 -278 -68 -337 -69 -570 0 -237
17 -390 66 -575 41 -155 120 -365 175 -465 13 -22 35 -62 49 -90 91 -168 263
-389 414 -529 24 -23 55 -51 68 -64 12 -13 23 -21 23 -18 0 3 16 -10 35 -29
19 -19 37 -35 40 -35 8 0 89 -63 93 -72 2 -5 10 -8 18 -8 8 0 14 -4 14 -10 0
-5 4 -10 9 -10 6 0 45 -22 88 -50 43 -27 83 -50 90 -50 6 0 13 -3 15 -7 3 -9
153 -80 233 -111 85 -34 120 -47 128 -48 4 -1 8 -2 10 -4 1 -1 9 -3 17 -5 8
-2 47 -12 85 -23 207 -58 354 -77 600 -77 224 0 335 12 540 59 85 20 302 93
333 112 12 8 22 12 22 9 0 -3 17 3 38 14 20 10 40 19 44 20 4 1 29 13 55 27
213 117 366 223 481 331 18 18 35 33 37 33 2 0 37 34 77 76 91 95 85 89 133
149 22 28 43 52 46 55 32 29 229 348 229 373 0 7 9 23 20 37 11 14 20 29 20
33 0 5 6 23 14 40 12 29 37 93 56 142 45 120 100 357 117 510 15 128 6 564
-12 595 -2 3 -6 24 -9 46 -8 51 -14 81 -20 102 -3 9 -7 28 -10 42 -7 40 -77
264 -85 275 -5 5 -14 27 -21 48 -17 54 -113 247 -155 313 -19 30 -35 58 -35
63 0 4 -9 16 -20 26 -11 10 -20 24 -20 31 0 7 -3 14 -7 16 -10 4 -73 85 -73
93 0 3 -13 19 -30 35 -16 16 -30 32 -30 35 0 4 -6 12 -12 20 -126 131 -171
175 -179 175 -6 0 -7 5 -4 10 3 6 3 10 -2 10 -4 0 -46 32 -93 71 -91 76 -194
149 -209 149 -5 0 -11 4 -13 8 -9 24 -246 147 -395 205 -124 49 -327 107 -428
122 -59 8 -96 14 -130 21 -31 6 -440 15 -446 10z"/>
</g>
</svg>
